<svg width="58" height="58" viewBox="0 0 58 58" fill="none" xmlns="http://www.w3.org/2000/svg">
<g filter="url(#filter0_d_45_481)">
<circle cx="29" cy="29" r="21" fill="#9EADBE"/>
</g>
<path d="M29.4863 21.5C29.6255 21.5 29.7589 21.558 29.8535 21.6602L31.3672 23.2939C31.5444 23.4857 31.5447 23.7821 31.3672 23.9736L26.708 29L31.3672 34.0264C31.5447 34.2179 31.5444 34.5143 31.3672 34.7061L29.8535 36.3398C29.7589 36.442 29.6255 36.5 29.4863 36.5C29.3473 36.5 29.2147 36.4418 29.1201 36.3398L22.6328 29.3398C22.4554 29.1482 22.4554 28.8518 22.6328 28.6602L29.1201 21.6602L29.1973 21.5918C29.281 21.5324 29.382 21.5 29.4863 21.5Z" fill="#4C556D" stroke="#4C556D" stroke-linejoin="round"/>
<defs>
<filter id="filter0_d_45_481" x="0" y="0" width="58" height="58" filterUnits="userSpaceOnUse" color-interpolation-filters="sRGB">
<feFlood flood-opacity="0" result="BackgroundImageFix"/>
<feColorMatrix in="SourceAlpha" type="matrix" values="0 0 0 0 0 0 0 0 0 0 0 0 0 0 0 0 0 0 127 0" result="hardAlpha"/>
<feOffset/>
<feGaussianBlur stdDeviation="4"/>
<feComposite in2="hardAlpha" operator="out"/>
<feColorMatrix type="matrix" values="0 0 0 0 0.0627451 0 0 0 0 0.109804 0 0 0 0 0.235294 0 0 0 0.5 0"/>
<feBlend mode="normal" in2="BackgroundImageFix" result="effect1_dropShadow_45_481"/>
<feBlend mode="normal" in="SourceGraphic" in2="effect1_dropShadow_45_481" result="shape"/>
</filter>
</defs>
</svg>
