<svg width="58" height="58" viewBox="0 0 58 58" fill="none" xmlns="http://www.w3.org/2000/svg">
<g filter="url(#filter0_d_288_1811)">
<circle cx="29" cy="29" r="21" fill="#9EADBE"/>
</g>
<path d="M23.5137 21.5C23.3745 21.5 23.2411 21.558 23.1465 21.6602L21.6328 23.2939C21.4556 23.4857 21.4553 23.7821 21.6328 23.9736L26.292 29L21.6328 34.0264C21.4553 34.2179 21.4556 34.5143 21.6328 34.7061L23.1465 36.3398C23.2411 36.442 23.3745 36.5 23.5137 36.5C23.6527 36.5 23.7853 36.4418 23.8799 36.3398L30.3672 29.3398C30.5446 29.1482 30.5446 28.8518 30.3672 28.6602L23.8799 21.6602L23.8027 21.5918C23.719 21.5324 23.618 21.5 23.5137 21.5Z" fill="#4C556D" stroke="#4C556D" stroke-linejoin="round"/>
<path d="M34.4863 21.5C34.6255 21.5 34.7589 21.558 34.8535 21.6602L36.3672 23.2939C36.5444 23.4857 36.5447 23.7821 36.3672 23.9736L31.708 29L36.3672 34.0264C36.5447 34.2179 36.5444 34.5143 36.3672 34.7061L34.8535 36.3398C34.7589 36.442 34.6255 36.5 34.4863 36.5C34.3473 36.5 34.2147 36.4418 34.1201 36.3398L27.6328 29.3398C27.4554 29.1482 27.4554 28.8518 27.6328 28.6602L34.1201 21.6602L34.1973 21.5918C34.281 21.5324 34.382 21.5 34.4863 21.5Z" fill="#4C556D" stroke="#4C556D" stroke-linejoin="round"/>
<defs>
<filter id="filter0_d_288_1811" x="0" y="0" width="58" height="58" filterUnits="userSpaceOnUse" color-interpolation-filters="sRGB">
<feFlood flood-opacity="0" result="BackgroundImageFix"/>
<feColorMatrix in="SourceAlpha" type="matrix" values="0 0 0 0 0 0 0 0 0 0 0 0 0 0 0 0 0 0 127 0" result="hardAlpha"/>
<feOffset/>
<feGaussianBlur stdDeviation="4"/>
<feComposite in2="hardAlpha" operator="out"/>
<feColorMatrix type="matrix" values="0 0 0 0 0.0627451 0 0 0 0 0.109804 0 0 0 0 0.235294 0 0 0 0.5 0"/>
<feBlend mode="normal" in2="BackgroundImageFix" result="effect1_dropShadow_288_1811"/>
<feBlend mode="normal" in="SourceGraphic" in2="effect1_dropShadow_288_1811" result="shape"/>
</filter>
</defs>
</svg>
