<svg width="58" height="58" viewBox="0 0 58 58" fill="none" xmlns="http://www.w3.org/2000/svg">
<g filter="url(#filter0_d_275_1242)">
<circle cx="29" cy="29" r="21" fill="#9EADBE"/>
</g>
<ellipse cx="29" cy="39" rx="8" ry="4" fill="#4C556D"/>
<mask id="path-3-outside-1_275_1242" maskUnits="userSpaceOnUse" x="19" y="12" width="20" height="26" fill="black">
<rect fill="white" x="19" y="12" width="20" height="26"/>
<path d="M29 14C33.4183 14 37 17.5817 37 22C37 23.4575 36.608 24.8227 35.927 25.9996C35.9269 25.9998 35.927 26 35.9272 26C35.9275 26 35.9276 26.0002 35.9275 26.0004L30.7321 34.9997C29.9623 36.3331 28.0377 36.3331 27.2679 34.9997L22.0725 26.0004C22.0724 26.0002 22.0725 26 22.0728 26C22.073 26 22.0731 25.9998 22.073 25.9996C21.392 24.8227 21 23.4575 21 22C21 17.5817 24.5817 14 29 14Z"/>
</mask>
<path d="M29 14C33.4183 14 37 17.5817 37 22C37 23.4575 36.608 24.8227 35.927 25.9996C35.9269 25.9998 35.927 26 35.9272 26C35.9275 26 35.9276 26.0002 35.9275 26.0004L30.7321 34.9997C29.9623 36.3331 28.0377 36.3331 27.2679 34.9997L22.0725 26.0004C22.0724 26.0002 22.0725 26 22.0728 26C22.073 26 22.0731 25.9998 22.073 25.9996C21.392 24.8227 21 23.4575 21 22C21 17.5817 24.5817 14 29 14Z" fill="#4C556D"/>
<path d="M22.073 25.9996L20.3419 27.0012L22.073 25.9996ZM22.0725 26.0004L23.8046 25.0005L22.0725 26.0004ZM35.9275 26.0004L37.6596 27.0004L35.9275 26.0004ZM35.927 25.9996L37.6581 27.0012L35.927 25.9996ZM29 14V16C32.3137 16 35 18.6863 35 22H37H39C39 16.4772 34.5228 12 29 12V14ZM37 22H35C35 23.094 34.7067 24.1151 34.1959 24.9979L35.927 25.9996L37.6581 27.0012C38.5092 25.5303 39 23.821 39 22H37ZM35.9275 26.0004L34.1954 25.0005L29 33.9998L30.7321 34.9997L32.4642 35.9997L37.6596 27.0004L35.9275 26.0004ZM27.2679 34.9997L29 33.9998L23.8046 25.0005L22.0725 26.0004L20.3404 27.0004L25.5358 35.9997L27.2679 34.9997ZM22.073 25.9996L23.8041 24.9979C23.2933 24.1151 23 23.094 23 22H21H19C19 23.821 19.4908 25.5303 20.3419 27.0012L22.073 25.9996ZM21 22H23C23 18.6863 25.6863 16 29 16V14V12C23.4772 12 19 16.4772 19 22H21ZM22.0728 26V28C23.6111 28 24.5769 26.3335 23.8041 24.9979L22.073 25.9996L20.3419 27.0012C19.5693 25.666 20.5349 24 22.0728 24V26ZM22.0725 26.0004L23.8046 25.0005C24.5735 26.3324 23.6136 28 22.0728 28V26V24C20.5315 24 19.5713 25.6681 20.3404 27.0004L22.0725 26.0004ZM30.7321 34.9997L29 33.9998H29L27.2679 34.9997L25.5358 35.9997C27.0754 38.6665 30.9246 38.6665 32.4642 35.9997L30.7321 34.9997ZM35.9272 26V28C34.3879 28 33.4258 26.3336 34.1954 25.0005L35.9275 26.0004L37.6596 27.0004C38.4294 25.6669 37.467 24 35.9272 24V26ZM35.927 25.9996L34.1959 24.9979C33.424 26.332 34.3872 28 35.9272 28V26V24C37.4668 24 38.4298 25.6675 37.6581 27.0012L35.927 25.9996Z" fill="#9EADBE" mask="url(#path-3-outside-1_275_1242)"/>
<circle cx="29" cy="23" r="4" fill="#9EADBE"/>
<defs>
<filter id="filter0_d_275_1242" x="0" y="0" width="58" height="58" filterUnits="userSpaceOnUse" color-interpolation-filters="sRGB">
<feFlood flood-opacity="0" result="BackgroundImageFix"/>
<feColorMatrix in="SourceAlpha" type="matrix" values="0 0 0 0 0 0 0 0 0 0 0 0 0 0 0 0 0 0 127 0" result="hardAlpha"/>
<feOffset/>
<feGaussianBlur stdDeviation="4"/>
<feComposite in2="hardAlpha" operator="out"/>
<feColorMatrix type="matrix" values="0 0 0 0 0.0627451 0 0 0 0 0.109804 0 0 0 0 0.235294 0 0 0 0.5 0"/>
<feBlend mode="normal" in2="BackgroundImageFix" result="effect1_dropShadow_275_1242"/>
<feBlend mode="normal" in="SourceGraphic" in2="effect1_dropShadow_275_1242" result="shape"/>
</filter>
</defs>
</svg>
